<svg width="23" height="23" viewBox="0 0 23 23" fill="none" xmlns="http://www.w3.org/2000/svg">
<g id="logout-03">
<path id="Vector" d="M13.9584 16.7344C13.8899 18.4577 12.4537 19.921 10.5298 19.8739C10.0822 19.8629 9.529 19.7069 8.42259 19.3948C5.7598 18.6437 3.44824 17.3814 2.89364 14.5536C2.79169 14.0339 2.79169 13.449 2.79169 12.2792V10.7208C2.79169 9.55105 2.79169 8.96614 2.89364 8.44634C3.44824 5.61856 5.7598 4.35627 8.42259 3.60519C9.529 3.29309 10.0822 3.13705 10.5298 3.1261C12.4537 3.07904 13.8899 4.5423 13.9584 6.26563" stroke="white" stroke-width="1.39583" stroke-linecap="round"/>
<path id="Vector_2" d="M19.5417 11.5001H9.30554M19.5417 11.5001C19.5417 10.8485 17.6858 9.6311 17.2153 9.17371M19.5417 11.5001C19.5417 12.1517 17.6858 13.3691 17.2153 13.8265" stroke="white" stroke-width="1.39583" stroke-linecap="round" stroke-linejoin="round"/>
</g>
</svg>
