<svg width="40" height="40" viewBox="0 0 40 40" fill="none" xmlns="http://www.w3.org/2000/svg">
<path d="M13.7803 19.5373C13.7135 20.8064 13.7903 22.1573 12.6565 23.0076C12.1288 23.4034 11.8182 24.0245 11.8182 24.6843C11.8182 25.5916 12.5289 26.3636 13.4545 26.3636H26.5454C27.4711 26.3636 28.1818 25.5916 28.1818 24.6843C28.1818 24.0245 27.8713 23.4034 27.3435 23.0076C26.2096 22.1573 26.2864 20.8064 26.2196 19.5373C26.0455 16.2293 23.3125 13.6364 20 13.6364C16.6874 13.6364 13.9544 16.2293 13.7803 19.5373Z" stroke="white" stroke-width="1.5" stroke-linecap="round" stroke-linejoin="round"/>
<path d="M18.6364 11.9318C18.6364 12.6849 19.2469 13.6363 20 13.6363C20.7531 13.6363 21.3636 12.6849 21.3636 11.9318C21.3636 11.1787 20.7531 10.9091 20 10.9091C19.2469 10.9091 18.6364 11.1787 18.6364 11.9318Z" stroke="white" stroke-width="1.5"/>
<path d="M22.7273 26.3636C22.7273 27.8699 21.5063 29.0909 20 29.0909C18.4937 29.0909 17.2727 27.8699 17.2727 26.3636" stroke="white" stroke-width="1.5" stroke-linecap="round" stroke-linejoin="round"/>
<circle cx="25.4546" cy="15.4546" r="2.72727" fill="#8AD82B"/>
</svg>
