<svg width="24" height="23" viewBox="0 0 24 23" fill="none" xmlns="http://www.w3.org/2000/svg">
<g id="scissor">
<path id="Vector" d="M20.3496 6.09211C20.3496 7.62906 19.1037 8.87501 17.5667 8.87501C16.0297 8.87501 14.7838 7.62906 14.7838 6.09211C14.7838 4.55516 16.0297 3.3092 17.5667 3.3092C19.1037 3.3092 20.3496 4.55516 20.3496 6.09211Z" stroke="white" stroke-width="1.85527"/>
<path id="Vector_2" d="M20.3496 17.2237C20.3496 18.7607 19.1037 20.0066 17.5667 20.0066C16.0297 20.0066 14.7838 18.7607 14.7838 17.2237C14.7838 15.6867 16.0297 14.4408 17.5667 14.4408C19.1037 14.4408 20.3496 15.6867 20.3496 17.2237Z" stroke="white" stroke-width="1.85527"/>
<path id="Vector_3" d="M14.7838 7.94739L3.65219 18.1514" stroke="white" stroke-width="1.85527" stroke-linecap="round" stroke-linejoin="round"/>
<path id="Vector_4" d="M14.7841 15.3684L11.0733 11.6579" stroke="white" stroke-width="1.85527" stroke-linecap="round" stroke-linejoin="round"/>
<path id="Vector_5" d="M3.65219 5.16449L8.75418 9.80256" stroke="white" stroke-width="1.85527" stroke-linecap="round" stroke-linejoin="round"/>
</g>
</svg>
