<svg width="24" height="24" viewBox="0 0 24 24" fill="none" xmlns="http://www.w3.org/2000/svg">
<g id="f7:layers-fill">
<path id="Vector" fill-rule="evenodd" clip-rule="evenodd" d="M18.1714 12.8571L21.1226 14.7017C21.2458 14.7788 21.3475 14.8859 21.418 15.0131C21.4884 15.1402 21.5254 15.2832 21.5254 15.4286C21.5254 15.5739 21.4884 15.7169 21.418 15.8441C21.3475 15.9712 21.2458 16.0784 21.1226 16.1554L14.7257 20.1536C13.9083 20.6644 12.9639 20.9353 12 20.9353C11.0361 20.9353 10.0916 20.6644 9.27427 20.1536L2.87741 16.1554C2.75413 16.0784 2.65247 15.9712 2.582 15.8441C2.51152 15.7169 2.47455 15.5739 2.47455 15.4286C2.47455 15.2832 2.51152 15.1402 2.582 15.0131C2.65247 14.8859 2.75413 14.7788 2.87741 14.7017L5.82855 12.8571L9.27427 15.0107C10.0916 15.5216 11.0361 15.7924 12 15.7924C12.9639 15.7924 13.9083 15.5216 14.7257 15.0107L18.1714 12.8571ZM14.7257 3.84642L21.1226 7.84457C21.2458 7.92162 21.3475 8.02875 21.418 8.15591C21.4884 8.28306 21.5254 8.42605 21.5254 8.57142C21.5254 8.7168 21.4884 8.85979 21.418 8.98694C21.3475 9.11409 21.2458 9.22123 21.1226 9.29828L14.7257 13.2964C13.9083 13.8073 12.9639 14.0782 12 14.0782C11.0361 14.0782 10.0916 13.8073 9.27427 13.2964L2.87741 9.29828C2.75413 9.22123 2.65247 9.11409 2.582 8.98694C2.51152 8.85979 2.47455 8.7168 2.47455 8.57142C2.47455 8.42605 2.51152 8.28306 2.582 8.15591C2.65247 8.02875 2.75413 7.92162 2.87741 7.84457L9.27427 3.84642C10.0916 3.33557 11.0361 3.0647 12 3.0647C12.9639 3.0647 13.9083 3.33557 14.7257 3.84642Z" fill="#8A8A8A"/>
</g>
</svg>
