<svg width="25" height="24" viewBox="0 0 25 24" fill="none" xmlns="http://www.w3.org/2000/svg">
<path d="M8.75 7.5C8.55109 7.5 8.36032 7.57902 8.21967 7.71967C8.07902 7.86032 8 8.05109 8 8.25C8 8.44891 8.07902 8.63968 8.21967 8.78033C8.36032 8.92098 8.55109 9 8.75 9H16.25C16.4489 9 16.6397 8.92098 16.7803 8.78033C16.921 8.63968 17 8.44891 17 8.25C17 8.05109 16.921 7.86032 16.7803 7.71967C16.6397 7.57902 16.4489 7.5 16.25 7.5H8.75ZM8.75 11.25C8.55109 11.25 8.36032 11.329 8.21967 11.4697C8.07902 11.6103 8 11.8011 8 12C8 12.1989 8.07902 12.3897 8.21967 12.5303C8.36032 12.671 8.55109 12.75 8.75 12.75H13.25C13.4489 12.75 13.6397 12.671 13.7803 12.5303C13.921 12.3897 14 12.1989 14 12C14 11.8011 13.921 11.6103 13.7803 11.4697C13.6397 11.329 13.4489 11.25 13.25 11.25H8.75ZM8.75 15C8.55109 15 8.36032 15.079 8.21967 15.2197C8.07902 15.3603 8 15.5511 8 15.75C8 15.9489 8.07902 16.1397 8.21967 16.2803C8.36032 16.421 8.55109 16.5 8.75 16.5H16.25C16.4489 16.5 16.6397 16.421 16.7803 16.2803C16.921 16.1397 17 15.9489 17 15.75C17 15.5511 16.921 15.3603 16.7803 15.2197C16.6397 15.079 16.4489 15 16.25 15H8.75ZM7.25 3C6.25544 3 5.30161 3.39509 4.59835 4.09835C3.89509 4.80161 3.5 5.75544 3.5 6.75V17.25C3.5 18.2446 3.89509 19.1984 4.59835 19.9016C5.30161 20.6049 6.25544 21 7.25 21H17.75C18.7446 21 19.6984 20.6049 20.4016 19.9016C21.1049 19.1984 21.5 18.2446 21.5 17.25V6.75C21.5 5.75544 21.1049 4.80161 20.4016 4.09835C19.6984 3.39509 18.7446 3 17.75 3H7.25ZM5 6.75C5 6.15326 5.23705 5.58097 5.65901 5.15901C6.08097 4.73705 6.65326 4.5 7.25 4.5H17.75C18.3467 4.5 18.919 4.73705 19.341 5.15901C19.7629 5.58097 20 6.15326 20 6.75V17.25C20 17.8467 19.7629 18.419 19.341 18.841C18.919 19.2629 18.3467 19.5 17.75 19.5H7.25C6.65326 19.5 6.08097 19.2629 5.65901 18.841C5.23705 18.419 5 17.8467 5 17.25V6.75Z" fill="black"/>
</svg>
