<svg width="35" height="34" viewBox="0 0 35 34" fill="none" xmlns="http://www.w3.org/2000/svg">
<rect x="0.591553" y="0.440857" width="33.5665" height="33.5665" rx="7.45922" fill="#111336"/>
<path d="M23.6685 13.0282C23.6685 14.1868 22.7292 15.1261 21.5706 15.1261C20.4119 15.1261 19.4727 14.1868 19.4727 13.0282C19.4727 11.8696 20.4119 10.9303 21.5706 10.9303C22.7292 10.9303 23.6685 11.8696 23.6685 13.0282Z" stroke="white" stroke-width="1.3986"/>
<path d="M23.6685 21.4198C23.6685 22.5785 22.7292 23.5177 21.5706 23.5177C20.4119 23.5177 19.4727 22.5785 19.4727 21.4198C19.4727 20.2611 20.4119 19.3219 21.5706 19.3219C22.7292 19.3219 23.6685 20.2611 23.6685 21.4198Z" stroke="white" stroke-width="1.3986"/>
<path d="M19.4727 14.4268L11.0811 22.1191" stroke="white" stroke-width="1.3986" stroke-linecap="round" stroke-linejoin="round"/>
<path d="M19.473 20.0212L16.6755 17.224" stroke="white" stroke-width="1.3986" stroke-linecap="round" stroke-linejoin="round"/>
<path d="M11.0811 12.3289L14.9272 15.8253" stroke="white" stroke-width="1.3986" stroke-linecap="round" stroke-linejoin="round"/>
</svg>
