<svg width="19" height="19" viewBox="0 0 19 19" fill="none" xmlns="http://www.w3.org/2000/svg">
<path d="M11.479 13.8685C11.4227 15.2857 10.2417 16.4891 8.65949 16.4503C8.29139 16.4413 7.83644 16.313 6.92655 16.0564C4.73672 15.4386 2.83574 14.4006 2.37965 12.0751C2.29581 11.6476 2.29581 11.1666 2.29581 10.2046V8.92306C2.29581 7.96104 2.29581 7.48003 2.37965 7.05256C2.83574 4.72705 4.73672 3.68896 6.92655 3.07129C7.83644 2.81463 8.29139 2.6863 8.65949 2.6773C10.2417 2.63859 11.4227 3.84195 11.479 5.25918" stroke="#FF6D6D" stroke-width="1.1479" stroke-linecap="round"/>
<path d="M16.0707 9.56381H7.65271M16.0707 9.56381C16.0707 9.02797 14.5445 8.02679 14.1575 7.65063M16.0707 9.56381C16.0707 10.0997 14.5445 11.1009 14.1575 11.477" stroke="#FF6D6D" stroke-width="1.1479" stroke-linecap="round" stroke-linejoin="round"/>
</svg>
