<svg width="25" height="24" viewBox="0 0 25 24" fill="none" xmlns="http://www.w3.org/2000/svg">
<path d="M9 4C8.60603 4 8.21593 4.0776 7.85195 4.22836C7.48797 4.37913 7.15726 4.6001 6.87868 4.87868C6.6001 5.15726 6.37913 5.48797 6.22836 5.85195C6.0776 6.21593 6 6.60603 6 7C6 7.39397 6.0776 7.78407 6.22836 8.14805C6.37913 8.51203 6.6001 8.84274 6.87868 9.12132C7.15726 9.3999 7.48797 9.62087 7.85195 9.77164C8.21593 9.9224 8.60603 10 9 10C9.79565 10 10.5587 9.68393 11.1213 9.12132C11.6839 8.55871 12 7.79565 12 7C12 6.20435 11.6839 5.44129 11.1213 4.87868C10.5587 4.31607 9.79565 4 9 4ZM4 7C4 5.67392 4.52678 4.40215 5.46447 3.46447C6.40215 2.52678 7.67392 2 9 2C10.3261 2 11.5979 2.52678 12.5355 3.46447C13.4732 4.40215 14 5.67392 14 7C14 8.32608 13.4732 9.59785 12.5355 10.5355C11.5979 11.4732 10.3261 12 9 12C7.67392 12 6.40215 11.4732 5.46447 10.5355C4.52678 9.59785 4 8.32608 4 7ZM21.073 5.648L21.57 6.515C22.1794 7.57633 22.5 8.7789 22.4996 10.0028C22.4993 11.2266 22.1781 12.429 21.568 13.49L21.069 14.357L19.336 13.36L19.834 12.493C20.2698 11.7352 20.4993 10.8764 20.4997 10.0023C20.5 9.12811 20.2712 8.26913 19.836 7.511L19.338 6.644L21.073 5.648ZM18.038 7.39L18.535 8.258C18.8398 8.78852 19.0002 9.38967 19.0002 10.0015C19.0002 10.6133 18.8398 11.2145 18.535 11.745L18.035 12.612L16.302 11.615L16.8 10.748C16.9307 10.5206 16.9995 10.2628 16.9995 10.0005C16.9995 9.73817 16.9307 9.48043 16.8 9.253L16.303 8.386L18.038 7.39ZM0.5 19C0.5 17.6739 1.02678 16.4021 1.96447 15.4645C2.90215 14.5268 4.17392 14 5.5 14H12.5C13.8261 14 15.0979 14.5268 16.0355 15.4645C16.9732 16.4021 17.5 17.6739 17.5 19V21H15.5V19C15.5 18.2044 15.1839 17.4413 14.6213 16.8787C14.0587 16.3161 13.2956 16 12.5 16H5.5C4.70435 16 3.94129 16.3161 3.37868 16.8787C2.81607 17.4413 2.5 18.2044 2.5 19V21H0.5V19Z" fill="#111336"/>
</svg>
